name Walk4.mot
datacolumns 19
datarows 10
range 1.04500000 1.09000000
endheader

                time	   L_ground_force_vx	   L_ground_force_vy	   L_ground_force_vz	   L_ground_force_px	   L_ground_force_py	   L_ground_force_pz	   R_ground_force_vx	   R_ground_force_vy	   R_ground_force_vz	   R_ground_force_px	   R_ground_force_py	   R_ground_force_pz	   L_ground_torque_x	   L_ground_torque_y	   L_ground_torque_z	   R_ground_torque_x	   R_ground_torque_y	   R_ground_torque_z	
          1.04500000	         26.68526438	        744.22961681	         38.28853842	         -0.35585096	          0.00000000	         -0.04040103	         -0.01110275	          0.21439492	          0.00226799	          0.00012603	          0.00000000	          0.00010830	          0.00000000	         -1.24808443	          0.00000000	          0.00000000	          0.00007590	          0.00000000	
          1.05000000	         27.86793903	        752.83178803	         39.26564408	         -0.35274057	          0.00000000	         -0.04038394	         -0.01861300	          0.26977329	          0.00321944	          0.00014164	          0.00000000	          0.00012124	          0.00000000	         -1.28479521	          0.00000000	          0.00000000	          0.00055937	          0.00000000	
          1.05500000	         29.16753139	        761.45570091	         40.19703523	         -0.34969801	          0.00000000	         -0.04035514	         -0.02802882	          0.32285857	          0.00430606	          0.00014851	          0.00000000	          0.00012647	          0.00000000	         -1.31772098	          0.00000000	          0.00000000	          0.00124430	          0.00000000	
          1.06000000	         30.61542191	        770.09489058	         41.06678771	         -0.34674717	          0.00000000	         -0.04031221	         -0.03925493	          0.36582115	          0.00546946	          0.00014092	          0.00000000	          0.00011902	          0.00000000	         -1.34746883	          0.00000000	          0.00000000	          0.00215891	          0.00000000	
          1.06500000	         32.24038879	        778.74705200	         41.86693500	         -0.34390937	          0.00000000	         -0.04025256	         -0.05191945	          0.38770011	          0.00660911	          0.00011170	          0.00000000	          0.00009273	          0.00000000	         -1.37435291	          0.00000000	          0.00000000	          0.00331887	          0.00000000	
          1.07000000	         34.06776387	        787.41405024	         42.59565973	         -0.34120313	          0.00000000	         -0.04017233	         -0.06526513	          0.37400340	          0.00757116	          0.00005236	          0.00000000	          0.00004029	          0.00000000	         -1.39863892	          0.00000000	          0.00000000	          0.00471838	          0.00000000	
          1.07500000	         36.11877749	        796.10094101	         43.25391098	         -0.33864505	          0.00000000	         -0.04006820	         -0.07802709	          0.30651992	          0.00813763	         -0.00004663	          0.00000000	         -0.00004644	          0.00000000	         -1.42021026	          0.00000000	          0.00000000	          0.00631884	          0.00000000	
          1.08000000	         38.41172497	        804.81218927	         43.84172373	         -0.33624850	          0.00000000	         -0.03993851	         -0.08830490	          0.16348502	          0.00801737	         -0.00019525	          0.00000000	         -0.00017596	          0.00000000	         -1.43866047	          0.00000000	          0.00000000	          0.00803528	          0.00000000	
          1.08500000	         40.96130758	        813.54570579	         44.35638099	         -0.33402304	          0.00000000	         -0.03978348	         -0.09344143	         -0.07972298	          0.00684107	         -0.00040292	          0.00000000	         -0.00035624	          0.00000000	         -1.45407125	          0.00000000	          0.00000000	          0.00972088	          0.00000000	
          1.09000000	         43.77767605	        822.28561184	         44.79081845	         -0.33197381	          0.00000000	         -0.03960455	         -0.08992728	         -0.44914452	          0.00416308	         -0.00067706	          0.00000000	         -0.00059343	          0.00000000	         -1.46685248	          0.00000000	          0.00000000	          0.01115052	          0.00000000	
